<svg xmlns="http://www.w3.org/2000/svg" viewBox="0 0 640 400" role="img" aria-label="Puhuripalli mängu eelvaade">
  <defs>
    <linearGradient id="ball" x1="0" x2="1" y1="0" y2="1">
      <stop offset="0" stop-color="#fff7c8"/>
      <stop offset="0.55" stop-color="#f2be42"/>
      <stop offset="1" stop-color="#b87516"/>
    </linearGradient>
    <radialGradient id="post" cx="35%" cy="30%" r="65%">
      <stop offset="0" stop-color="#fff1eb"/>
      <stop offset="0.45" stop-color="#de604c"/>
      <stop offset="1" stop-color="#8e2824"/>
    </radialGradient>
  </defs>
  <rect width="640" height="400" fill="#6fad73"/>
  <g opacity="0.42">
    <rect x="0" y="0" width="54" height="400" fill="#5b9e62"/>
    <rect x="108" y="0" width="54" height="400" fill="#5b9e62"/>
    <rect x="216" y="0" width="54" height="400" fill="#5b9e62"/>
    <rect x="324" y="0" width="54" height="400" fill="#5b9e62"/>
    <rect x="432" y="0" width="54" height="400" fill="#5b9e62"/>
    <rect x="540" y="0" width="54" height="400" fill="#5b9e62"/>
  </g>
  <g fill="none" stroke="#d8f4d9" stroke-width="4" opacity="0.72">
    <rect x="26" y="28" width="588" height="344"/>
    <line x1="320" y1="28" x2="320" y2="372"/>
    <circle cx="320" cy="200" r="45"/>
  </g>
  <g>
    <rect x="592" y="154" width="22" height="104" fill="#fffaf0" stroke="#164e63" stroke-width="6"/>
    <text x="602" y="143" text-anchor="middle" font-family="system-ui, sans-serif" font-size="18" font-weight="800" fill="#164e63">VÄRAV</text>
  </g>
  <circle cx="82" cy="210" r="16" fill="url(#ball)" stroke="#704d13" stroke-width="2"/>
  <g>
    <circle cx="214" cy="118" r="18" fill="url(#post)"/>
    <circle cx="214" cy="312" r="18" fill="url(#post)"/>
    <circle cx="315" cy="188" r="19" fill="url(#post)"/>
    <circle cx="405" cy="102" r="17" fill="url(#post)"/>
    <circle cx="430" cy="298" r="19" fill="url(#post)"/>
    <circle cx="514" cy="206" r="18" fill="url(#post)"/>
    <g fill="none" stroke="#fff6ed" stroke-width="4" opacity="0.9">
      <circle cx="214" cy="118" r="9"/>
      <circle cx="214" cy="312" r="9"/>
      <circle cx="315" cy="188" r="9"/>
      <circle cx="405" cy="102" r="8"/>
      <circle cx="430" cy="298" r="9"/>
      <circle cx="514" cy="206" r="9"/>
    </g>
  </g>
  <path d="M370 218 L475 256 L426 154 Z" fill="#d8f5ff" opacity="0.22"/>
  <g transform="translate(450 254) rotate(34)">
    <line x1="-58" y1="0" x2="10" y2="0" stroke="#26323a" stroke-width="18" stroke-linecap="round"/>
    <line x1="-50" y1="0" x2="0" y2="0" stroke="#7fb7c2" stroke-width="10" stroke-linecap="round"/>
    <path d="M38 0 L-8 -19 L-8 19 Z" fill="#164e63"/>
    <g fill="#1f2937" stroke="#d1d5db" stroke-width="2">
      <circle cx="-58" cy="-19" r="11"/>
      <circle cx="-58" cy="19" r="11"/>
      <circle cx="-10" cy="-17" r="9"/>
      <circle cx="-10" cy="17" r="9"/>
    </g>
    <circle cx="0" cy="0" r="5" fill="#0f172a"/>
  </g>
</svg>
